<svg width="14" height="14" viewBox="0 0 14 14" fill="none" xmlns="http://www.w3.org/2000/svg">
<path d="M6.96499 11.2C7.20999 11.2 7.41719 11.1153 7.58659 10.9459C7.75599 10.7765 7.84046 10.5695 7.83999 10.325C7.83952 10.0805 7.75506 9.87326 7.58659 9.70339C7.41813 9.53353 7.21093 9.44906 6.96499 9.44999C6.71906 9.45092 6.51209 9.53563 6.34409 9.70409C6.17609 9.87256 6.09139 10.0795 6.08999 10.325C6.08859 10.5705 6.17329 10.7777 6.34409 10.9466C6.51489 11.1155 6.72186 11.2 6.96499 11.2ZM6.33499 8.50499H7.62999C7.62999 8.11999 7.67386 7.81666 7.76159 7.59499C7.84932 7.37333 8.09712 7.06999 8.50499 6.685C8.80832 6.38166 9.04749 6.0928 9.22249 5.8184C9.39749 5.544 9.48499 5.21453 9.48499 4.83C9.48499 4.17666 9.24582 3.675 8.76749 3.325C8.28916 2.975 7.72332 2.8 7.06999 2.8C6.40499 2.8 5.86553 2.975 5.45159 3.325C5.03766 3.675 4.7488 4.095 4.585 4.585L5.73999 5.04C5.79833 4.83 5.92969 4.6025 6.13409 4.3575C6.33849 4.1125 6.65046 3.99 7.06999 3.99C7.44333 3.99 7.72332 4.0922 7.90999 4.2966C8.09666 4.501 8.18999 4.72546 8.18999 4.97C8.18999 5.20333 8.11999 5.4222 7.97999 5.6266C7.83999 5.831 7.66499 6.02046 7.45499 6.195C6.94166 6.65 6.62666 6.99416 6.50999 7.22749C6.39333 7.46083 6.33499 7.88666 6.33499 8.50499ZM6.99999 14C6.03166 14 5.12166 13.8164 4.27 13.4491C3.41833 13.0818 2.6775 12.583 2.0475 11.9525C1.4175 11.322 0.918867 10.5812 0.5516 9.72999C0.184334 8.87879 0.000467552 7.96879 8.86075e-07 6.99999C-0.00046578 6.0312 0.183401 5.1212 0.5516 4.27C0.9198 3.4188 1.41843 2.67797 2.0475 2.0475C2.67656 1.41704 3.4174 0.918402 4.27 0.551603C5.1226 0.184803 6.03259 0.000936868 6.99999 3.53535e-06C7.96739 -0.000929797 8.87739 0.182937 9.72999 0.551603C10.5826 0.920269 11.3234 1.4189 11.9525 2.0475C12.5816 2.6761 13.0804 3.41693 13.4491 4.27C13.8178 5.12306 14.0014 6.03306 14 6.99999C13.9986 7.96693 13.8147 8.87693 13.4484 9.72999C13.0821 10.5831 12.5834 11.3239 11.9525 11.9525C11.3216 12.5811 10.5807 13.08 9.72999 13.4491C8.87926 13.8182 7.96926 14.0019 6.99999 14Z" fill="#007AFF"/>
</svg>
